<svg enable-background="new 193.185 127.907 2134.593 501.853" height="501.853" viewBox="193.185 127.907 2134.593 501.853" width="2134.593" xmlns="http://www.w3.org/2000/svg"><g fill="#fff"><path d="m877.777 189.019c0 14.815-3.703 27.778-12.963 37.037-11.11 11.111-24.073 16.667-40.74 16.667s-29.63-5.556-40.741-16.667c-11.11-11.111-16.666-24.074-16.666-40.741s5.556-29.63 16.666-40.741c11.111-11.111 24.074-16.667 40.741-16.667 7.407 0 14.814 1.852 22.222 5.556s12.964 7.408 16.667 12.963l-9.259 9.259c-7.408-9.259-16.667-12.963-29.63-12.963-11.111 0-22.223 3.704-29.63 12.963-9.259 7.408-12.963 18.519-12.963 31.481 0 12.963 3.704 24.074 12.963 31.481 9.26 7.408 18.519 12.963 29.63 12.963 12.963 0 22.223-3.704 31.481-12.963 5.556-5.555 9.259-12.963 9.259-22.222h-40.74v-14.814h53.704zm85.186-46.297h-50v35.185h46.296v12.963h-46.296v35.186h50v14.814h-64.814v-111.111h64.814zm61.111 98.148h-14.814v-98.148h-31.482v-12.963h77.778v12.963h-31.481v98.148zm85.186 0v-111.111h14.814v111.111zm77.777 0h-14.814v-98.148h-31.482v-12.963h75.927v12.963h-31.481v98.148zm175.926-14.814c-11.111 11.111-24.074 16.667-40.74 16.667-16.667 0-29.63-5.556-40.741-16.667s-16.667-24.074-16.667-40.741 5.556-29.63 16.667-40.741 24.074-16.667 40.741-16.667c16.666 0 29.629 5.556 40.74 16.667s16.667 24.074 16.667 40.741c0 16.666-5.556 29.629-16.667 40.741zm-70.37-9.26c7.407 7.407 18.519 12.963 29.629 12.963 11.111 0 22.223-3.704 29.63-12.963 7.407-7.408 12.963-18.519 12.963-31.481s-3.703-24.074-12.963-31.481c-7.407-7.408-18.519-12.963-29.63-12.963-11.11 0-22.222 3.704-29.629 12.963-7.407 7.407-12.963 18.519-12.963 31.481s3.703 24.074 12.963 31.481zm107.407 24.074v-111.111h16.667l53.703 87.037v-87.037h14.815v111.111h-14.815l-57.407-90.74v90.74z"/><path d="m1261.111 403.833c-44.444 0-79.63 33.334-79.63 79.63 0 44.444 35.186 79.63 79.63 79.63s79.629-33.334 79.629-79.63c0-48.149-35.184-79.63-79.629-79.63zm0 125.926c-24.074 0-44.444-20.37-44.444-48.147 0-27.778 20.37-48.148 44.444-48.148s44.444 18.519 44.444 48.148c.001 27.777-20.369 48.147-44.444 48.147zm-172.222-125.926c-44.444 0-79.629 33.334-79.629 79.63 0 44.444 35.185 79.63 79.629 79.63s79.63-33.334 79.63-79.63c0-48.149-35.186-79.63-79.63-79.63zm0 125.926c-24.074 0-44.444-20.37-44.444-48.147 0-27.778 20.37-48.148 44.444-48.148s44.444 18.519 44.444 48.148c0 27.777-20.37 48.147-44.444 48.147zm-205.556-101.852v33.333h79.63c-1.852 18.519-9.259 33.334-18.519 42.593-11.111 11.111-29.63 24.074-61.111 24.074-50 0-87.037-38.889-87.037-88.889s38.89-88.889 87.037-88.889c25.927 0 46.297 11.11 61.111 24.074l24.074-24.074c-20.37-18.519-46.296-33.334-83.333-33.334-66.667 0-124.074 55.556-124.074 122.223s57.408 122.222 124.075 122.222c37.037 0 62.963-11.11 85.185-35.185 22.223-22.223 29.63-53.704 29.63-77.778 0-7.407 0-14.814-1.852-20.37zm840.741 25.926c-7.407-18.519-25.926-50-66.667-50-40.74 0-74.074 31.481-74.074 79.63 0 44.444 33.334 79.63 77.778 79.63 35.185 0 57.407-22.223 64.814-35.186l-25.925-18.518c-9.26 12.963-20.37 22.223-38.889 22.223s-29.63-7.407-38.889-24.074l105.555-44.444zm-107.407 25.926c0-29.629 24.073-46.296 40.74-46.296 12.963 0 25.926 7.407 29.63 16.667zm-87.037 75.927h35.185v-231.482h-35.185zm-55.556-135.186c-9.26-9.259-24.074-18.519-42.593-18.519-38.889 0-75.926 35.186-75.926 79.63s35.185 77.777 75.926 77.777c18.519 0 33.333-9.259 40.74-18.519h1.853v11.111c0 29.63-16.667 46.296-42.593 46.296-20.37 0-35.186-14.814-38.889-27.777l-29.63 12.963c9.259 20.37 31.481 46.297 70.37 46.297 40.741 0 74.074-24.074 74.074-81.482v-140.74h-33.333v12.963zm-40.741 109.26c-24.073 0-44.444-20.371-44.444-48.148 0-27.778 20.371-48.148 44.444-48.148 24.074 0 42.593 20.37 42.593 48.148 0 27.777-18.519 48.148-42.593 48.148zm451.853-205.556h-83.334v231.481h35.186v-87.037h48.148c38.889 0 75.926-27.778 75.926-72.223s-37.038-72.221-75.926-72.221zm1.851 111.11h-50v-79.629h50c25.926 0 40.74 22.222 40.74 38.889-1.851 20.37-16.666 40.74-40.74 40.74zm212.963-33.333c-25.926 0-51.852 11.111-61.111 35.186l31.481 12.963c7.407-12.963 18.519-16.667 31.481-16.667 18.519 0 35.186 11.111 37.037 29.63v1.852c-5.556-3.703-20.37-9.259-35.186-9.259-33.333 0-66.666 18.519-66.666 51.852 0 31.481 27.777 51.852 57.407 51.852 24.074 0 35.185-11.111 44.444-22.222h1.852v18.519h33.334v-88.89c-3.703-40.741-35.184-64.816-74.073-64.816zm-3.703 127.779c-11.111 0-27.778-5.556-27.778-20.371 0-18.519 20.37-24.074 37.037-24.074 14.815 0 22.222 3.704 31.481 7.408-3.703 22.221-22.223 37.037-40.74 37.037zm194.443-122.223-38.889 100h-1.851l-40.74-100h-37.037l61.111 140.74-35.186 77.778h35.186l94.444-218.519h-37.038zm-311.11 148.149h35.186v-231.482h-35.186z"/><path d="m412.738 370.522-217.692-215.95c-1.218 3.43-1.861 7.532-1.861 12.224v405.555c0 2.316.092 4.475.269 6.433.159 1.353.384 2.67.678 3.939.012.05.024.101.036.151.147.622.309 1.233.487 1.83.008.028.016.057.024.084.187.62.391 1.226.61 1.815.022.061.048.119.071.18.103.27.217.526.326.789z"/><path d="m501.375 436.486 87.034-48.738c10.166-6.814 14.703-12.14 14.703-17.248 0-5.112-4.544-10.442-14.726-17.264l-86.498-49.237-66.5 66.501z"/><path d="m227.241 591.493.302-.18 256.993-145.333-60.462-60.463-210.954 210.955c4.455-.254 9.2-1.903 14.121-4.979z"/><path d="m227.524 147.823c-5.9-3.372-11.623-5.15-16.558-5.15-1.042 0-2.03.104-2.991.26l216.972 213.529 61.341-61.342z"/></g></svg>