<svg enable-background="new 0 0 48 34.801" height="34.801" viewBox="0 0 48 34.801" width="48" xmlns="http://www.w3.org/2000/svg"><g fill="#c0c0c0"><path d="m3.3 0h41.4c.379 0 .741.067 1.08.185l-15.13 15.13-1.485 1.485-3.574 3.574c-.425.425-.99.659-1.591.659s-1.166-.234-1.591-.659l-3.574-3.574-1.485-1.485-15.13-15.13c.338-.118.701-.185 1.08-.185z"/><path d="m0 31.5v-28.199c0-.672.202-1.297.547-1.818l15.318 15.318-15.707 15.706c-.102-.317-.158-.654-.158-1.007z"/><path d="m44.7 34.801h-41.4c-.697 0-1.344-.219-1.877-.588l15.927-15.928 3.574 3.575c.822.821 1.914 1.273 3.076 1.273s2.254-.453 3.076-1.273l3.574-3.575 15.927 15.927c-.533.37-1.18.589-1.877.589z"/><path d="m48 31.5c0 .353-.056.69-.158 1.007l-15.707-15.706 15.318-15.318c.345.521.547 1.145.547 1.818z"/></g></svg>