<svg enable-background="new 0 0 30 30" height="30" viewBox="0 0 30 30" width="30" xmlns="http://www.w3.org/2000/svg"><path d="m15 0c-8.284 0-15 6.716-15 15s6.716 15 15 15 15-6.716 15-15-6.716-15-15-15zm.023 10.242c.198-.892.672-1.603 1.434-2.109.394-.262.825-.44 1.297-.509.022-.003.044-.014.065-.021h.118c-.001.235.025.474-.01.703-.131.851-.531 1.559-1.203 2.1-.498.401-1.062.639-1.728.599-.037-.258-.028-.513.027-.763zm5.971 8.323c-.064.152-.112.31-.173.463-.26.654-.611 1.258-1.023 1.828-.295.408-.593.813-.998 1.125-.353.272-.745.413-1.195.39-.369-.02-.71-.133-1.04-.287-.697-.323-1.413-.387-2.148-.157-.183.058-.356.148-.539.207-.29.095-.585.176-.877.263-.119 0-.236 0-.354 0-.112-.035-.227-.063-.336-.105-.389-.149-.693-.418-.962-.723-.689-.781-1.251-1.647-1.647-2.612-.452-1.099-.722-2.238-.708-3.434.006-.86.175-1.685.606-2.436.532-.928 1.318-1.539 2.369-1.786.418-.098.844-.137 1.262-.014.418.124.83.27 1.239.418.355.128.704.222 1.076.06.245-.106.5-.19.75-.282.411-.151.826-.292 1.269-.305.855-.025 1.645.185 2.341.696.287.211.529.468.729.769-.028.021-.049.038-.071.053-.3.206-.565.45-.795.732-.61.75-.821 1.605-.677 2.554.101.662.386 1.233.851 1.715.284.294.612.529.98.707.073.037.109.072.071.161z" fill="#fff"/></svg>