<svg enable-background="new 0 0 30 30" height="30" viewBox="0 0 30 30" width="30" xmlns="http://www.w3.org/2000/svg"><path d="m15 0c-8.284 0-15 6.716-15 15s6.716 15 15 15 15-6.716 15-15-6.716-15-15-15zm-6.202 9.787h12.404c.113 0 .222.02.324.055l-4.534 4.534-.445.445-1.071 1.071c-.126.127-.296.196-.476.196s-.35-.07-.477-.197l-1.071-1.071-.444-.445-4.534-4.533c.102-.035.211-.055.324-.055zm-.989 9.438v-8.449c0-.202.061-.389.164-.544l4.589 4.589-4.706 4.706c-.03-.096-.047-.197-.047-.302zm13.393.988h-12.404c-.209 0-.403-.065-.562-.176l4.772-4.772 1.071 1.071c.247.246.574.381.922.381s.675-.136.922-.381l1.07-1.071 4.772 4.772c-.16.111-.354.176-.563.176zm.989-.988c0 .105-.017.207-.047.302l-4.706-4.706 4.59-4.589c.103.156.164.343.164.544v8.449z" fill="#fff"/></svg>