<svg enable-background="new 0 0 30 30" height="30" viewBox="0 0 30 30" width="30" xmlns="http://www.w3.org/2000/svg"><g fill="#fff"><path d="m13.484 16.924 3.962-2.074-3.962-2.061z"/><path d="m15 0c-8.284 0-15 6.716-15 15s6.716 15 15 15 15-6.716 15-15-6.716-15-15-15zm7.267 17.362c-.111 1.672-.586 2.723-2.694 2.708 0 0-3.478.115-4.699.115-1.163 0-3.428-.071-4.645-.128-1.896-.09-2.377-.987-2.496-2.738-.043-.627-.101-1.773-.101-2.455 0-.61.056-1.718.101-2.327.126-1.7.681-2.542 2.492-2.593 1.279-.036 3.552-.129 4.736-.129 1.2 0 4.713.129 4.713.129 2.108.029 2.454 1.045 2.622 2.852.053.563.072 1.603.072 2.262 0 .634-.061 1.7-.101 2.304z"/></g></svg>