<svg enable-background="new 0 0 30 30" height="30" viewBox="0 0 30 30" width="30" xmlns="http://www.w3.org/2000/svg"><g fill="#fff"><path d="m15 0c-8.284 0-15 6.716-15 15s6.716 15 15 15 15-6.716 15-15-6.716-15-15-15zm7.089 17.804c0 2.532-1.765 4.285-4.285 4.285h-5.608c-2.625 0-4.285-1.817-4.285-4.285v-5.607c0-2.542 1.817-4.285 4.412-4.285h5.482c2.625 0 4.285 1.806 4.285 4.285v5.607z"/><circle cx="15.016" cy="14.984" r="2.379"/><path d="m17.804 9.171h-5.482c-1.915 0-3.151 1.188-3.151 3.025v5.607c0 .895.276 1.651.8 2.189.533.547 1.302.836 2.224.836h5.608c.896 0 1.656-.286 2.197-.825.541-.541.827-1.301.827-2.2v-5.607c0-.898-.276-1.656-.799-2.192-.53-.545-1.3-.833-2.224-.833zm-2.788 9.452c-2.01 0-3.64-1.629-3.64-3.639s1.63-3.639 3.64-3.639c2.009 0 3.639 1.629 3.639 3.639s-1.63 3.639-3.639 3.639zm3.749-6.521c-.479 0-.866-.388-.866-.867s.388-.866.866-.866.866.388.866.866-.387.867-.866.867z"/></g></svg>