<svg enable-background="new 0 0 30 30" height="30" viewBox="0 0 30 30" width="30" xmlns="http://www.w3.org/2000/svg"><path d="m15 0c-8.284 0-15 6.716-15 15s6.716 15 15 15 15-6.716 15-15-6.716-15-15-15zm5.948 11.943c.476 7.024-7.46 11.406-13.247 7.847 1.623.012 3.422-.434 4.387-1.35-1.404-.228-2.398-.864-2.784-2.109.411-.039.988.088 1.266-.084-1.284-.488-2.299-1.244-2.363-2.953.458.049.695.317 1.266.253-.83-.533-1.779-2.557-.928-4.05 1.507 1.671 3.388 2.968 6.328 3.207-.729-3.102 3.381-5.023 5.231-2.785.719-.153 1.325-.418 1.941-.675-.252.704-.764 1.148-1.265 1.603.545-.102 1.121-.173 1.519-.422-.071.549-.868 1.1-1.351 1.518z" fill="#fff"/></svg>