<svg enable-background="new 0 0 30 30" height="30" viewBox="0 0 30 30" width="30" xmlns="http://www.w3.org/2000/svg"><path clip-rule="evenodd" d="m15.011 0c-8.284-.004-15.01 6.717-15.011 15.003-.001 8.282 6.716 14.997 14.999 14.997 8.281 0 14.996-6.7 15.001-14.968.005-8.305-6.698-15.027-14.989-15.032zm-3.283 8.245c2.9 1.576 5.782 3.185 8.672 4.834-.686.69-1.355 1.364-2.016 2.029-.132-.126-.261-.24-.381-.363-1.757-1.79-3.516-3.579-5.27-5.371-.325-.331-.636-.675-.953-1.014-.026-.028-.047-.063-.07-.094.005-.008.012-.015.018-.021zm-.418 13.922c-.058-.044-.11-.098-.173-.132-.156-.085-.224-.221-.238-.387-.023-.292-.053-.585-.057-.877-.014-1.046-.024-2.092-.024-3.138 0-2.375.005-4.751.012-7.127.001-.516.019-1.031.024-1.547.002-.175.038-.335.148-.477.039-.05.078-.061.126-.023.096.076.196.149.283.235.654.65 1.31 1.3 1.958 1.957 1.548 1.567 3.093 3.138 4.64 4.708.018.019.041.033.069.056-2.258 2.257-4.507 4.505-6.756 6.753-.003-.001-.008-.001-.012-.001zm8.666-4.493c-.041.028-.084.052-.128.076-1.091.596-2.183 1.19-3.273 1.787-1.366.748-2.731 1.498-4.097 2.247-.055.03-.112.057-.168.085-.007-.009-.013-.018-.02-.026 2.032-2.023 4.064-4.047 6.098-6.073.032.027.054.041.071.059.489.485.978.97 1.465 1.457.04.04.074.086.105.133.074.11.059.18-.053.255zm3.731-2.38c-.031.086-.057.174-.094.258-.038.086-.102.151-.186.198-.561.315-1.117.636-1.68.946-.362.2-.732.384-1.098.578-.058.031-.096.024-.142-.021-.447-.447-.894-.892-1.343-1.336-.154-.153-.312-.303-.47-.455.022-.025.03-.036.04-.046.596-.592 1.191-1.184 1.789-1.774.089-.088.189-.165.286-.243.055-.045.112-.044.177-.008.747.421 1.497.839 2.242 1.263.114.064.214.155.313.241.093.082.135.196.165.314.001.028.001.057.001.085z" fill="#fff" fill-rule="evenodd"/></svg>