<svg enable-background="new 0 0 30 30" height="30" viewBox="0 0 30 30" width="30" xmlns="http://www.w3.org/2000/svg"><path clip-rule="evenodd" d="m14.999 30c-8.283 0-15-6.715-14.999-14.997.001-8.286 6.727-15.007 15.011-15.003 8.291.005 14.994 6.727 14.989 15.032-.005 8.268-6.72 14.968-15.001 14.968zm-1.394-21.11c-1.725 0-2.975.076-4.217.268-.822.126-1.634.3-2.431.537-.48.143-.837.571-.883 1.047-.077.798.619 1.45 1.411 1.316.163-.028.321-.08.48-.123 1.626-.438 3.287-.605 4.965-.621 1.593-.015 3.173.123 4.738.422 1.21.231 2.398.547 3.532 1.035.492.212.968.465 1.441.716.287.151.572.248.901.195.712-.114 1.175-.839.972-1.53-.106-.36-.345-.601-.663-.783-1.197-.686-2.469-1.188-3.793-1.563-2.263-.641-4.575-.91-6.453-.916zm-.748 4.437c-.661.042-1.323.07-1.981.13-1.06.096-2.1.299-3.118.606-.137.041-.273.104-.391.186-.383.265-.519.755-.343 1.188s.627.697 1.083.62c.175-.03.345-.094.518-.139 1.237-.326 2.497-.499 3.774-.529 1.408-.034 2.802.09 4.18.383 1.607.342 3.137.888 4.553 1.731.064.038.129.074.197.104.455.204.994.035 1.256-.395.265-.433.17-1.011-.22-1.317-.09-.071-.188-.131-.287-.19-.642-.383-1.312-.711-2.006-.991-2.313-.933-4.725-1.35-7.215-1.387zm-.151 4.262c-.506-.002-1.311.038-2.107.154-.818.12-1.632.271-2.445.423-.392.074-.66.409-.664.777-.004.39.241.713.609.81.173.045.341.019.51-.021 1.17-.279 2.357-.443 3.557-.509 1.151-.064 2.297-.004 3.434.197 1.484.262 2.888.747 4.182 1.529.075.045.153.088.234.121.431.176.93-.063 1.066-.509.116-.382-.035-.746-.409-.974-.584-.355-1.193-.662-1.827-.919-1.872-.763-3.826-1.084-6.14-1.079z" fill="#fff" fill-rule="evenodd"/></svg>